<?xml version="1.0" standalone="no"?>
<svg width="64" height="64" viewBox="0 0 512 384" version="1.1" xmlns="http://www.w3.org/2000/svg">
  <path d="M337 302c61 0 111 -45 111 -109s-50 -111 -111 -111h-226c-61 0 -111 47 -111 111s50 109 111 109h226zM168 181v0v22c0 3 -2 5 -5 5h-35v35c0 3 -2 5 -5 5h-22c-3 0 -5 -2 -5 -5v-35h-35c-3 0 -5 -2 -5 -5v-21c0 -3 2 -6 5 -6h35v-35c0 -3 2 -5 5 -5h21c3 0 6 2 6 5v35 h35c3 0 5 2 5 5zM288 173c11 0 19 8 19 19s-8 19 -19 19s-20 -8 -20 -19s9 -19 20 -19zM330 131c11 0 20 8 20 19s-9 19 -20 19s-19 -8 -19 -19s8 -19 19 -19zM330 214c11 0 20 9 20 20s-9 19 -20 19s-19 -8 -19 -19s8 -20 19 -20zM373 173c11 0 19 8 19 19s-8 19 -19 19 s-20 -8 -20 -19s9 -19 20 -19z" transform="matrix(1,0,0,-1,0,384)"/>
</svg>