<?xml version="1.0" standalone="no"?>
<svg width="64" height="64" viewBox="0 0 435 384" version="1.1" xmlns="http://www.w3.org/2000/svg">
  <path d="M52 224c20 0 35 -15 35 -37s-19 -41 -41 -41c-24 0 -46 19 -46 53c0 39 21 73 53 96v0c1 0 2 1 3 1s2 -1 3 -2v0l22 -13v0c2 -1 2 -3 2 -5s-1 -4 -3 -5v0v0v0c-16 -9 -34 -30 -39 -48c2 1 7 1 11 1zM157 224c20 0 35 -15 35 -37s-19 -41 -41 -41c-24 0 -46 19 -46 53 c0 39 21 73 53 96h1c1 0 1 1 2 1s3 -1 4 -2v0l21 -13v0c2 -1 3 -3 3 -5s-2 -4 -4 -5v0v0v0c-16 -9 -33 -30 -38 -48c2 1 6 1 10 1zM284 238c24 0 46 -19 46 -53c0 -39 -21 -73 -53 -96v0c-1 0 -2 -1 -3 -1s-2 1 -3 2v0l-22 13v0c-2 1 -2 3 -2 5s1 4 3 5v0v0v0 c16 9 34 30 39 48c-2 -1 -6 -1 -10 -1c-20 0 -36 15 -36 37s19 41 41 41zM389 238c24 0 46 -19 46 -53c0 -39 -21 -73 -53 -96v0c-1 0 -1 -1 -2 -1s-3 1 -4 2v0l-21 13v0c-2 1 -3 3 -3 5s1 4 3 5v0h1v0c16 9 33 30 38 48c-2 -1 -6 -1 -10 -1c-20 0 -35 15 -35 37 s18 41 40 41z" transform="matrix(1,0,0,-1,0,384)"/>
</svg>