<?xml version="1.0" standalone="no"?>
<svg width="64" height="64" viewBox="0 0 384 384" version="1.1" xmlns="http://www.w3.org/2000/svg">
  <path d="M192 384c106 0 192 -77 192 -171c0 -59 -48 -106 -107 -106h-38c-18 0 -32 -14 -32 -32c0 -9 3 -17 8 -22s9 -12 9 -21c0 -18 -14 -32 -32 -32c-106 0 -192 86 -192 192s86 192 192 192zM75 192c18 0 32 14 32 32s-14 32 -32 32s-32 -14 -32 -32s14 -32 32 -32zM139 277 c18 0 32 14 32 32s-14 32 -32 32s-32 -14 -32 -32s14 -32 32 -32zM245 277c18 0 32 14 32 32s-14 32 -32 32s-32 -14 -32 -32s14 -32 32 -32zM309 192c18 0 32 14 32 32s-14 32 -32 32s-32 -14 -32 -32s14 -32 32 -32z" transform="matrix(1,0,0,-1,0,384)"/>
</svg>