<?xml version="1.0" standalone="no"?>
<svg width="64" height="64" viewBox="0 0 348 384" version="1.1" xmlns="http://www.w3.org/2000/svg">
  <path d="M348 329v0v-274v0c0 -20 -17 -37 -37 -37v0h-274v0c-20 0 -37 17 -37 37v0v274v0c0 20 17 37 37 37v0h274v0c20 -1 37 -17 37 -37zM87 71c20 0 36 16 36 36s-16 36 -36 36s-36 -16 -36 -36s16 -36 36 -36zM87 243c20 0 36 16 36 36s-16 36 -36 36s-36 -16 -36 -36 s16 -36 36 -36zM174 156c20 0 36 16 36 36s-16 36 -36 36s-36 -16 -36 -36s16 -36 36 -36zM261 69c20 0 36 16 36 36s-16 36 -36 36s-36 -16 -36 -36s16 -36 36 -36zM261 243c20 0 36 16 36 36s-16 36 -36 36s-36 -16 -36 -36s16 -36 36 -36z" transform="matrix(1,0,0,-1,0,384)"/>
</svg>